# File created by Blade
# Date/Time:  Mon Sep 29 17:58:21 2014
# Frame Rate: 120.000 fps
#------------------------------------------------------
:FULLY-SPECIFIED
:DEGREES
1799
root -1.998310 3.754124 -7.943715 -23.184567 7.250878 5.818616
Spine 47.905986 59.360051 23.834700
Head -92.913612 68.559056 -72.890149
LeftShoulder -9.476835 11.821083 16.650627
LeftArm 27.814664 32.844898 -75.628255
LeftForeArm -27.363546 -0.000000 7.777541
LeftHand -53.556536 -0.000000 79.781729
LeftHandThumb1 -26.253704 0.000000 33.147579
RightShoulder 7.309367 30.070714 -19.219746
RightArm -2.776607 -50.002097 64.309681
RightForeArm -26.809425 -0.000000 13.881082
RightHand -5.073437 -0.000000 32.335634
RightHandThumb1 -24.326973 -0.000000 -32.862282
LeftUpLeg -108.165058 -29.674159 -17.015160
LeftLeg 115.940352 -0.000000 -0.000000
LeftFoot 10.509693 10.434393 -16.070216
LeftToeBase 4.970324 -0.000000 -0.000000
RightUpLeg -63.911610 -4.139322 17.126083
RightLeg 6.470345 -0.000000 -0.000000
RightFoot 38.268826 -3.005668 10.168205
RightToeBase 6.828360 -0.000000 -0.000000
1800
root -1.999564 3.754813 -7.944825 -23.210027 7.273957 5.803876
Spine 47.951617 59.321282 23.886519
Head -93.003075 68.546278 -73.005699
LeftShoulder -9.489283 11.778417 16.641702
LeftArm 27.822438 32.979788 -75.571114
LeftForeArm -27.494320 -0.000000 7.790549
LeftHand -53.498301 -0.000000 79.823365
LeftHandThumb1 -26.253704 0.000000 33.147579
RightShoulder 7.309676 30.090088 -19.219306
RightArm -2.763117 -50.032965 64.302738
RightForeArm -26.831717 0.000000 13.845062
RightHand -5.070700 -0.000000 32.303383
RightHandThumb1 -24.326973 -0.000000 -32.862282
LeftUpLeg -108.120463 -29.686568 -17.042043
LeftLeg 115.933879 -0.000000 -0.000000
LeftFoot 10.503182 10.463791 -16.052390
LeftToeBase 5.010475 -0.000000 -0.000000
RightUpLeg -63.878682 -4.158011 17.094897
RightLeg 6.459666 -0.000000 -0.000000
RightFoot 38.254137 -2.933044 10.162819
RightToeBase 6.823578 -0.000000 -0.000000
1801
root -1.999225 3.754425 -7.944634 -23.212222 7.294963 5.815712
Spine 47.951918 59.329380 23.878971
Head -93.093614 68.563569 -73.090412
LeftShoulder -9.480285 11.804039 16.659291
LeftArm 27.867163 32.993857 -75.549391
LeftForeArm -27.495277 -0.000000 7.798885
LeftHand -53.488356 0.000000 79.801568
LeftHandThumb1 -26.253704 0.000000 33.147579
RightShoulder 7.316743 30.085718 -19.198989
RightArm -2.771829 -50.088093 64.290561
RightForeArm -26.849342 -0.000000 13.864582
RightHand -5.064066 -0.000000 32.302753
RightHandThumb1 -24.326973 -0.000000 -32.862282
LeftUpLeg -108.107925 -29.692135 -17.076069
LeftLeg 115.930976 -0.000000 -0.000000
LeftFoot 10.509811 10.464249 -16.058422
LeftToeBase 5.013748 -0.000000 -0.000000
RightUpLeg -63.891645 -4.163681 17.065965
RightLeg 6.497911 -0.000000 -0.000000
RightFoot 38.193476 -2.861824 10.102044
RightToeBase 6.906627 -0.000000 -0.000000
1802
root -1.999721 3.753735 -7.945031 -23.218810 7.308092 5.819305
Spine 47.953864 59.322977 23.876253
Head -93.219482 68.568648 -73.215275
LeftShoulder -9.492672 11.802489 16.659977
LeftArm 27.873490 33.004152 -75.540697
LeftForeArm -27.489538 -0.000000 7.818981
LeftHand -53.496206 -0.000000 79.869385
LeftHandThumb1 -26.253704 0.000000 33.147579
RightShoulder 7.323103 30.106772 -19.183469
RightArm -2.791475 -50.131196 64.285840
RightForeArm -26.874492 -0.000000 13.901527
RightHand -5.097245 0.000000 32.323955
RightHandThumb1 -24.326973 -0.000000 -32.862282
LeftUpLeg -108.092581 -29.693647 -17.102232
LeftLeg 115.928018 -0.000000 -0.000000
LeftFoot 10.519290 10.482049 -16.054565
LeftToeBase 5.000512 -0.000000 -0.000000
RightUpLeg -63.888624 -4.162669 17.036138
RightLeg 6.518885 -0.000000 -0.000000
RightFoot 38.123036 -2.789064 10.053093
RightToeBase 7.069282 -0.000000 -0.000000
1803
root -1.999784 3.753228 -7.945337 -23.230133 7.322141 5.832062
Spine 47.981078 59.316264 23.888289
Head -93.320845 68.568680 -73.326416
LeftShoulder -9.487249 11.813303 16.667104
LeftArm 27.883271 32.997340 -75.546022
LeftForeArm -27.455999 -0.000000 7.843749
LeftHand -53.478842 -0.000000 79.907702
LeftHandThumb1 -26.253704 0.000000 33.147579
RightShoulder 7.319043 30.110094 -19.200599
RightArm -2.774345 -50.160162 64.278967
RightForeArm -26.889159 -0.000000 13.920520
RightHand -5.103749 0.000000 32.346486
RightHandThumb1 -24.326973 -0.000000 -32.862282
LeftUpLeg -108.075307 -29.685550 -17.128278
LeftLeg 115.926048 -0.000000 -0.000000
LeftFoot 10.518270 10.478373 -16.044095
LeftToeBase 5.052716 -0.000000 -0.000000
RightUpLeg -63.882759 -4.159160 16.993023
RightLeg 6.536164 -0.000000 -0.000000
RightFoot 38.124429 -2.769525 10.067756
RightToeBase 6.944494 -0.000000 -0.000000
1804
root -2.000462 3.752592 -7.945574 -23.239226 7.338050 5.844596
Spine 47.974399 59.299484 23.848484
Head -93.541630 68.559578 -73.528882
LeftShoulder -9.501401 11.789900 16.680814
LeftArm 27.848574 32.985497 -75.575582
LeftForeArm -27.504688 -0.000000 7.915544
LeftHand -53.559439 -0.000000 80.189475
LeftHandThumb1 -26.253704 0.000000 33.147579
RightShoulder 7.340213 30.158772 -19.206097
RightArm -2.791721 -50.200025 64.304664
RightForeArm -26.871292 0.000000 13.936868
RightHand -5.105209 -0.000000 32.380893
RightHandThumb1 -24.326973 -0.000000 -32.862282
LeftUpLeg -108.062705 -29.680306 -17.155113
LeftLeg 115.921587 -0.000000 -0.000000
LeftFoot 10.548248 10.461630 -16.077186
LeftToeBase 4.947324 -0.000000 -0.000000
RightUpLeg -63.875623 -4.158881 16.955525
RightLeg 6.549217 -0.000000 -0.000000
RightFoot 38.071172 -2.710600 10.022114
RightToeBase 7.114316 -0.000000 -0.000000
1805
root -1.999337 3.751631 -7.947032 -23.245719 7.353081 5.873424
Spine 47.992514 59.293477 23.824412
Head -93.686479 68.562109 -73.668874
LeftShoulder -9.511713 11.772710 16.706408
LeftArm 27.843893 33.021115 -75.591878
LeftForeArm -27.533623 0.000000 7.937111
LeftHand -53.527578 -0.000000 80.113827
LeftHandThumb1 -26.253704 0.000000 33.147579
RightShoulder 7.359183 30.194936 -19.211689
RightArm -2.811912 -50.210212 64.315970
RightForeArm -26.880624 -0.000000 13.960444
RightHand -5.114340 -0.000000 32.432837
RightHandThumb1 -24.326973 -0.000000 -32.862282
LeftUpLeg -108.041887 -29.673568 -17.204884
LeftLeg 115.916880 -0.000000 -0.000000
LeftFoot 10.540004 10.466489 -16.049094
LeftToeBase 4.999304 -0.000000 -0.000000
RightUpLeg -63.876734 -4.142968 16.864236
RightLeg 6.596281 -0.000000 -0.000000
RightFoot 37.821632 -2.931206 10.379465
RightToeBase 7.809275 -0.000000 -0.000000
1806
root -2.000828 3.750667 -7.946601 -23.251779 7.363267 5.877771
Spine 47.992505 59.296951 23.812160
Head -93.784572 68.555739 -73.744157
LeftShoulder -9.504008 11.764346 16.744891
LeftArm 27.861190 33.036608 -75.613511
LeftForeArm -27.487768 -0.000000 7.841948
LeftHand -53.385733 0.000000 79.987917
LeftHandThumb1 -26.253704 0.000000 33.147579
RightShoulder 7.354901 30.216536 -19.198456
RightArm -2.805893 -50.245953 64.288496
RightForeArm -26.897640 -0.000000 14.000588
RightHand -5.106911 -0.000000 32.473857
RightHandThumb1 -24.326973 -0.000000 -32.862282
LeftUpLeg -108.038503 -29.666671 -17.212020
LeftLeg 115.918980 -0.000000 -0.000000
LeftFoot 10.550796 10.438879 -16.069642
LeftToeBase 5.011350 -0.000000 -0.000000
RightUpLeg -63.876182 -4.151246 16.876776
RightLeg 6.589016 -0.000000 -0.000000
RightFoot 37.999406 -2.632026 9.963798
RightToeBase 7.234003 -0.000000 -0.000000
1807
root -2.001598 3.750300 -7.946677 -23.259078 7.380416 5.884624
Spine 48.013931 59.293941 23.818834
Head -93.818461 68.538642 -73.770163
LeftShoulder -9.478296 11.755680 16.767055
LeftArm 27.866316 33.055043 -75.613097
LeftForeArm -27.511163 -0.000000 7.839753
LeftHand -53.418966 -0.000000 79.949953
LeftHandThumb1 -26.253704 0.000000 33.147579
RightShoulder 7.372283 30.220965 -19.196426
RightArm -2.806381 -50.237529 64.275684
RightForeArm -26.923141 -0.000000 13.998512
RightHand -5.077372 -0.000000 32.484223
RightHandThumb1 -24.326973 -0.000000 -32.862282
LeftUpLeg -108.019510 -29.664346 -17.246013
LeftLeg 115.918796 -0.000000 -0.000000
LeftFoot 10.558963 10.440310 -16.071355
LeftToeBase 4.990586 -0.000000 -0.000000
RightUpLeg -63.865559 -4.161575 16.859660
RightLeg 6.580511 -0.000000 -0.000000
RightFoot 38.008020 -2.573701 9.912987
RightToeBase 7.123827 -0.000000 -0.000000
1808
root -2.002624 3.749026 -7.947344 -23.260980 7.394910 5.890236
Spine 47.993116 59.278290 23.784345
Head -93.915557 68.543630 -73.850807
LeftShoulder -9.455197 11.727259 16.800074
LeftArm 27.840419 33.114789 -75.610036
LeftForeArm -27.599644 -0.000000 7.852509
LeftHand -53.420727 0.000000 79.934025
LeftHandThumb1 -26.253704 0.000000 33.147579
RightShoulder 7.372137 30.245836 -19.177692
RightArm -2.736665 -50.289674 64.223543
RightForeArm -26.953005 -0.000000 13.939905
RightHand -5.034057 -0.000000 32.482440
RightHandThumb1 -24.326973 -0.000000 -32.862282
LeftUpLeg -108.011793 -29.658775 -17.264722
LeftLeg 115.914893 -0.000000 -0.000000
LeftFoot 10.571272 10.423963 -16.053873
LeftToeBase 5.054675 -0.000000 -0.000000
RightUpLeg -63.870313 -4.171490 16.847763
RightLeg 6.583523 -0.000000 -0.000000
RightFoot 38.003879 -2.517591 9.892019
RightToeBase 7.159032 -0.000000 -0.000000
1809
root -2.003772 3.748302 -7.947683 -23.266749 7.410920 5.890806
Spine 47.981185 59.259950 23.766534
Head -93.926174 68.532780 -73.845629
LeftShoulder -9.421564 11.700295 16.826416
LeftArm 27.824634 33.170659 -75.602343
LeftForeArm -27.696743 -0.000000 7.841030
LeftHand -53.439050 0.000000 79.991546
LeftHandThumb1 -26.253704 0.000000 33.147579
RightShoulder 7.378621 30.280235 -19.143999
RightArm -2.703390 -50.325488 64.170874
RightForeArm -27.005542 -0.000000 13.918282
RightHand -5.012266 -0.000000 32.494786
RightHandThumb1 -24.326973 -0.000000 -32.862282
LeftUpLeg -107.992292 -29.653844 -17.290629
LeftLeg 115.912304 -0.000000 -0.000000
LeftFoot 10.576485 10.416912 -16.048767
LeftToeBase 5.104627 -0.000000 -0.000000
RightUpLeg -63.868213 -4.178293 16.827328
RightLeg 6.589466 -0.000000 -0.000000
RightFoot 37.976274 -2.446558 9.837050
RightToeBase 7.304342 -0.000000 -0.000000
1810
root -2.003297 3.746816 -7.948929 -23.272891 7.426620 5.897369
Spine 48.000596 59.243936 23.786149
Head -93.930359 68.534175 -73.849607
LeftShoulder -9.366292 11.694837 16.853301
LeftArm 27.826213 33.212399 -75.598770
LeftForeArm -27.788003 -0.000000 7.821453
LeftHand -53.459863 -0.000000 79.938790
LeftHandThumb1 -26.253704 0.000000 33.147579
RightShoulder 7.365464 30.288624 -19.154421
RightArm -2.652744 -50.377056 64.119629
RightForeArm -27.008828 -0.000000 13.918558
RightHand -5.032630 -0.000000 32.478671
RightHandThumb1 -24.326973 -0.000000 -32.862282
LeftUpLeg -107.975703 -29.653515 -17.317235
LeftLeg 115.905465 -0.000000 -0.000000
LeftFoot 10.581186 10.413713 -16.045095
LeftToeBase 5.111185 -0.000000 -0.000000
RightUpLeg -63.866289 -4.179614 16.778845
RightLeg 6.619949 -0.000000 -0.000000
RightFoot 37.747431 -2.720536 10.285739
RightToeBase 7.921089 -0.000000 -0.000000
1811
root -2.004346 3.745480 -7.949508 -23.277664 7.452316 5.896184
Spine 48.027122 59.232756 23.811538
Head -93.941254 68.514600 -73.843288
LeftShoulder -9.319268 11.674918 16.876338
LeftArm 27.831920 33.236475 -75.599647
LeftForeArm -27.826358 -0.000000 7.799303
LeftHand -53.489396 -0.000000 79.915137
LeftHandThumb1 -26.253704 0.000000 33.147579
RightShoulder 7.316509 30.302193 -19.193406
RightArm -2.587623 -50.346986 64.090335
RightForeArm -27.121509 0.000000 13.888359
RightHand -4.993482 0.000000 32.431596
RightHandThumb1 -24.326973 -0.000000 -32.862282
LeftUpLeg -107.956805 -29.661159 -17.348690
LeftLeg 115.899673 -0.000000 -0.000000
LeftFoot 10.590072 10.431417 -16.035773
LeftToeBase 5.117649 -0.000000 -0.000000
RightUpLeg -63.872701 -4.205147 16.792199
RightLeg 6.607828 -0.000000 -0.000000
RightFoot 37.958481 -2.444249 9.890004
RightToeBase 7.235431 -0.000000 -0.000000
